# xmcd
#
# Track frame offsets:
#	150
#	20612
#	39748
#	56996
#	77558
#	98220
#	114107
#	133506
#	154706
#	175417
#	195628
#	214239
#	236538
#	255818
#	273570
#	291082
#	311780
#
# Disc length: 4450 seconds
#
# Revision: 3
# Processed by: cddbd v1.5.2PL0 Copyright (c) Steve Scherf et al.
# Submitted via: EZCDAudioConverter 7.1.7.1
#
DISCID=ee116011
DTITLE=刘德华 - 我们的刘德华(粤) Disc 03
DYEAR=2012
DGENRE=
TTITLE0=钻石眼泪
TTITLE1=天天想妳
TTITLE2=暗里着迷
TTITLE3=这一生是给你一个
TTITLE4=情人Happy Birthday
TTITLE5=爱意香槟
TTITLE6=答案就是妳
TTITLE7=今夜梦还暖
TTITLE8=谢谢您的爱
TTITLE9=真我的风采
TTITLE10=独自去偷欢
TTITLE11=仍唱我的歌
TTITLE12=爱不完
TTITLE13=一起走过的日子
TTITLE14=情感的禁区
TTITLE15=只知道此刻爱妳
TTITLE16=神雕大侠
EXTD=
EXTT0=
EXTT1=
EXTT2=
EXTT3=
EXTT4=
EXTT5=
EXTT6=
EXTT7=
EXTT8=
EXTT9=
EXTT10=
EXTT11=
EXTT12=
EXTT13=
EXTT14=
EXTT15=
EXTT16=
PLAYORDER=
